#!OML:ASF F:\VICON\USERDATA\INSTALL\rory3\rory3.ASF
:FULLY-SPECIFIED
:DEGREES
80
root 0.40773 17.8117 -9.75509 1.85098 -6.87991 -8.08964
lowerback 9.40833 2.26761 8.12773
upperback -0.384532 4.06029 2.51534
thorax -5.31608 1.80605 -2.46396
lowerneck -17.7043 -3.12433 -0.833711
upperneck 20.0907 -3.99986 -0.447648
head 9.25383 -1.98157 -0.537423
rclavicle 2.18787e-014 3.22031e-014
rhumerus -21.1501 -7.75373 -80.9455
rradius 36.505
rwrist -4.47852
rhand -19.8691 21.9976
rfingers 7.12502
rthumb 6.46615 -7.88372
lclavicle 2.18787e-014 3.22031e-014
lhumerus -36.1812 10.7425 78.9773
lradius 18.8747
lwrist 0.913058
lhand -26.6365 16.4319
lfingers 7.12502
lthumb -0.0690141 46.4116
rfemur 8.77937 3.43356 33.6515
rtibia 20.2578
rfoot -19.4515 -1.45417
rtoes 0.235702
lfemur -27.5827 -4.50432 -9.34988
ltibia 12.8445
lfoot -10.9246 12.3409
ltoes -7.12576
81
root 0.419235 17.784 -9.56621 1.62401 -6.80328 -8.14106
lowerback 9.76942 2.29658 8.25729
upperback -0.358648 4.14575 2.43027
thorax -5.46914 1.83687 -2.65403
lowerneck -17.9342 -3.25413 -0.691259
upperneck 20.1789 -4.2172 -0.454027
head 9.32291 -2.07118 -0.59689
rclavicle 2.97929e-014 1.51076e-014
rhumerus -21.337 -8.14159 -80.9031
rradius 36.8381
rwrist -4.44343
rhand -19.7641 21.8782
rfingers 7.12502
rthumb 6.56754 -7.99996
lclavicle 2.97929e-014 1.51076e-014
lhumerus -36.1815 10.8963 78.7223
lradius 18.6066
lwrist 0.378556
lhand -26.8877 14.792
lfingers 7.12502
lthumb -0.311587 44.7715
rfemur 9.63738 3.67302 33.7137
rtibia 20.5963
rfoot -18.9204 -2.23074
rtoes -0.998773
lfemur -27.7248 -3.10784 -10.1768
ltibia 14.0457
lfoot -10.7223 11.2132
ltoes -4.35569
82
root 0.430497 17.7948 -9.37073 1.39156 -6.81501 -8.21544
lowerback 10.0229 2.29478 8.29814
upperback -0.344538 4.17652 2.46048
thorax -5.59397 1.84579 -2.66251
lowerneck -18.0075 -3.27209 -0.820943
upperneck 20.3808 -4.24402 -0.298116
head 9.41385 -2.07435 -0.529863
rclavicle 4.67144e-015 -1.03368e-014
rhumerus -21.7212 -8.07685 -80.842
rradius 37.2798
rwrist -4.71865
rhand -19.6669 21.7685
rfingers 7.12502
rthumb 6.66134 -8.10668
lclavicle 4.67144e-015 -1.03368e-014
lhumerus -36.3237 10.9769 78.6297
lradius 18.4589
lwrist 0.316451
lhand -26.6694 15.8286
lfingers 7.12502
lthumb -0.100766 45.8083
rfemur 10.2244 3.85167 33.751
rtibia 21.0888
rfoot -18.7807 -1.78815
rtoes -1.26665
lfemur -27.7557 -2.17436 -10.7504
ltibia 15.3909
lfoot -10.7827 10.4691
ltoes -3.91119
83
root 0.443853 17.7858 -9.16697 1.26081 -6.65569 -8.36408
lowerback 9.94843 2.26443 8.38985
upperback -0.24541 4.13654 2.55543
thorax -5.45167 1.83329 -2.60141
lowerneck -18.2239 -3.22615 -1.02806
upperneck 20.5214 -4.17702 -0.0594043
head 9.51352 -2.02987 -0.410639
rclavicle -9.93923e-015 -1.98785e-016
rhumerus -21.7848 -8.12209 -80.684
rradius 37.4399
rwrist -4.9088
rhand -19.5488 21.8049
rfingers 7.12502
rthumb 6.77539 -8.06671
lclavicle -9.93923e-015 -1.98785e-016
lhumerus -36.3585 11.2967 78.5744
lradius 18.4205
lwrist -0.137551
lhand -26.272 18.7602
lfingers 7.12502
lthumb 0.283087 48.7397
rfemur 10.6324 3.81891 33.8552
rtibia 21.6857
rfoot -18.811 -0.931539
rtoes -2.83046
lfemur -28.0175 -1.61871 -11.1184
ltibia 16.7532
lfoot -10.1536 9.53513
ltoes -5.36608
84
root 0.462921 17.7777 -8.95037 1.01293 -6.66073 -8.03781
lowerback 9.82759 2.27003 8.10255
upperback -0.137125 4.08491 2.47058
thorax -5.28573 1.82468 -2.51586
lowerneck -18.0623 -3.1367 -1.03147
upperneck 20.3569 -4.07068 0.0214044
head 9.42787 -1.97309 -0.363076
rclavicle -4.12354e-014 -3.61788e-014
rhumerus -21.8597 -8.64914 -80.5738
rradius 37.3107
rwrist -4.49629
rhand -19.5643 22.0532
rfingers 7.12502
rthumb 6.7604 -7.81892
lclavicle -4.12354e-014 -3.61788e-014
lhumerus -36.3335 11.7221 78.3418
lradius 18.0546
lwrist -0.392392
lhand -26.3256 20.5525
lfingers 7.12502
lthumb 0.231283 50.5321
rfemur 11.1738 3.81186 33.3731
rtibia 22.4279
rfoot -18.6415 -0.330112
rtoes -4.47686
lfemur -27.8461 -1.38563 -11.8702
ltibia 17.7073
lfoot -7.37975 8.06695
ltoes -10.2272
85
root 0.487931 17.7907 -8.72763 0.816641 -6.86195 -7.77436
lowerback 9.76024 2.38261 7.94236
upperback -0.0908811 4.20018 2.37185
thorax -5.19025 1.88961 -2.54022
lowerneck -17.8294 -3.24412 -1.03801
upperneck 20.2079 -4.2237 0.0416619
head 9.33459 -2.04457 -0.369368
rclavicle -2.99668e-014 -3.20043e-014
rhumerus -22.1836 -8.88632 -80.4675
rradius 37.2742
rwrist -4.5523
rhand -20.2025 21.5663
rfingers 7.12502
rthumb 6.14431 -8.32461
lclavicle -2.99668e-014 -3.20043e-014
lhumerus -36.2019 12.1145 78.1325
lradius 17.4208
lwrist -0.667044
lhand -26.6553 20.7836
lfingers 7.12502
lthumb -0.0871787 50.7634
rfemur 11.6542 3.9643 32.8821
rtibia 23.2474
rfoot -17.9808 0.329926
rtoes -4.55443
lfemur -27.592 -1.36695 -12.4107
ltibia 18.7047
lfoot -5.71048 6.83632
ltoes -1.22957
86
root 0.509191 17.8275 -8.5096 0.725003 -7.05748 -7.48729
lowerback 9.76166 2.519 7.7032
upperback -0.179954 4.35435 2.25086
thorax -5.27743 1.96501 -2.55691
lowerneck -17.6754 -3.38541 -0.973652
upperneck 20.3532 -4.43447 0.00805124
head 9.35559 -2.14157 -0.418154
rclavicle 2.9445e-015 1.19271e-014
rhumerus -22.7163 -9.20926 -80.3518
rradius 37.189
rwrist -4.66676
rhand -20.5403 21.1771
rfingers 7.12502
rthumb 5.81822 -8.72299
lclavicle 2.9445e-015 1.19271e-014
lhumerus -36.3264 12.324 77.9214
lradius 16.975
lwrist -0.688286
lhand -27.1469 19.9071
lfingers 7.12502
lthumb -0.561965 49.8861
rfemur 11.8637 4.20457 32.396
rtibia 24.1812
rfoot -16.8322 0.826808
rtoes -5.13878
lfemur -27.5137 -1.42172 -12.8776
ltibia 19.8267
lfoot -3.36352 5.46412
ltoes -1.009
87
root 0.529397 17.8464 -8.28833 0.519913 -7.15793 -6.97184
lowerback 9.73737 2.57426 7.13997
upperback -0.308325 4.36631 2.16878
thorax -5.43181 1.97715 -2.33636
lowerneck -17.0996 -3.35005 -0.879796
upperneck 20.3841 -4.36595 -0.214781
head 9.25265 -2.13063 -0.490156
rclavicle -2.48357e-014 2.22639e-014
rhumerus -23.3515 -9.42325 -80.144
rradius 36.986
rwrist -4.75221
rhand -19.7125 21.641
rfingers 7.12502
rthumb 6.61734 -8.23558
lclavicle -2.48357e-014 2.22639e-014
lhumerus -36.7971 12.2664 77.9328
lradius 16.8244
lwrist -0.291568
lhand -27.6847 18.7593
lfingers 7.12502
lthumb -1.08137 48.7363
rfemur 12.0566 4.39273 31.6773
rtibia 25.3842
rfoot -15.7465 1.29865
rtoes -6.46138
lfemur -27.269 -1.41254 -13.6524
ltibia 20.8718
lfoot -2.0106 4.44584
ltoes -3.27846
88
root 0.548384 17.8574 -8.06808 0.309652 -7.05479 -6.11141
lowerback 9.56431 2.58115 6.29117
upperback -0.268781 4.24998 1.94554
thorax -5.34329 1.94556 -2.07454
lowerneck -17.1171 -3.28878 -1.00005
upperneck 20.5485 -4.30236 0.00673909
head 9.32148 -2.08419 -0.388863
rclavicle -7.1811e-015 -6.55989e-015
rhumerus -23.6319 -10.0054 -80.0193
rradius 36.6615
rwrist -4.43009
rhand -19.1066 22.2442
rfingers 7.12502
rthumb 7.20229 -7.61321
lclavicle -7.1811e-015 -6.55989e-015
lhumerus -36.8234 12.6848 77.686
lradius 16.6949
lwrist -0.746989
lhand -27.7137 18.2551
lfingers 7.12502
lthumb -1.10941 48.2319
rfemur 11.9512 4.46559 30.574
rtibia 26.926
rfoot -14.5778 1.89523
rtoes -6.98711
lfemur -26.9735 -1.31894 -14.9058
ltibia 21.6978
lfoot -1.30843 3.642
ltoes -3.14112
89
root 0.564027 17.8682 -7.84286 0.137043 -6.63365 -5.34993
lowerback 9.38384 2.51157 5.59334
upperback -0.243872 4.05241 1.71295
thorax -5.25916 1.8683 -1.89472
lowerneck -17.3639 -3.26656 -1.14
upperneck 20.8403 -4.29173 0.247186
head 9.4783 -2.0596 -0.290012
rclavicle -1.71824e-014 1.98785e-015
rhumerus -23.9044 -10.8328 -79.9059
rradius 36.1908
rwrist -3.99583
rhand -19.1961 22.183
rfingers 7.12502
rthumb 7.11585 -7.67741
lclavicle -1.71824e-014 1.98785e-015
lhumerus -36.6234 13.2576 77.3195
lradius 16.232
lwrist -1.48932
lhand -27.6197 17.0172
lfingers 7.12502
lthumb -1.01858 46.9945
rfemur 11.6015 4.26312 29.6123
rtibia 28.7549
rfoot -13.1383 2.51221
rtoes -7.24125
lfemur -26.7453 -1.56074 -15.9818
ltibia 22.4812
lfoot -0.450728 2.88841
ltoes -1.02313
90
root 0.576329 17.883 -7.6203 -0.054462 -6.20232 -5.01744
lowerback 9.21695 2.36596 5.19398
upperback -0.254324 3.8036 1.69777
thorax -5.21718 1.75791 -1.64913
lowerneck -17.2574 -3.19878 -1.12919
upperneck 20.9839 -4.16067 0.0673458
head 9.50353 -2.01835 -0.336184
rclavicle 5.35787e-014 2.44505e-014
rhumerus -24.0579 -11.4731 -79.6745
rradius 35.2355
rwrist -3.71187
rhand -19.2675 22.7254
rfingers 7.12502
rthumb 7.0469 -7.13726
lclavicle 5.35787e-014 2.44505e-014
lhumerus -36.6905 14.0778 76.8744
lradius 15.8029
lwrist -2.03596
lhand -27.2934 16.1172
lfingers 7.12502
lthumb -0.703472 46.0958
rfemur 11.1604 4.01094 29.1169
rtibia 30.7643
rfoot -11.2477 3.29434
rtoes -5.79589
lfemur -26.3212 -1.73536 -16.5616
ltibia 23.0232
lfoot 0.612151 2.28955
ltoes -0.159988
91
root 0.592171 17.9003 -7.39547 -0.282716 -5.99652 -4.88107
lowerback 9.07304 2.35628 5.11526
upperback -0.260801 3.77175 1.67599
thorax -5.14821 1.74619 -1.61688
lowerneck -16.8822 -3.25418 -1.18406
upperneck 20.9825 -4.20394 -0.0311618
head 9.43297 -2.05614 -0.359836
rclavicle -3.18677e-014 -1.49089e-014
rhumerus -24.4556 -12.722 -79.2444
rradius 34.3708
rwrist -3.48911
rhand -18.3101 23.6368
rfingers 7.12502
rthumb 7.97107 -6.19293
lclavicle -3.18677e-014 -1.49089e-014
lhumerus -36.7541 14.0467 76.8404
lradius 15.5969
lwrist -1.71808
lhand -27.6083 16.4202
lfingers 7.12502
lthumb -1.00765 46.3976
rfemur 10.7679 3.72079 28.6929
rtibia 32.7231
rfoot -8.81727 3.96014
rtoes -3.09449
lfemur -25.8986 -1.76997 -16.9451
ltibia 23.8108
lfoot 1.3129 2.17038
ltoes -1.72594
